<?xml version="1.0" standalone="no"?>
<!DOCTYPE svg PUBLIC "-//W3C//DTD SVG 20010904//EN"
 "http://www.w3.org/TR/2001/REC-SVG-20010904/DTD/svg10.dtd">
<svg version="1.0" xmlns="http://www.w3.org/2000/svg"
 width="1000.000000pt" height="1000.000000pt" viewBox="0 0 1000.000000 1000.000000"
 preserveAspectRatio="xMidYMid meet">
<metadata>
Created by potrace 1.11, written by Peter Selinger 2001-2013
</metadata>
<g transform="translate(0.000000,1000.000000) scale(0.100000,-0.100000)"
fill="#000000" stroke="none">
<path d="M1615 7536 c-62 -20 -122 -58 -149 -95 -39 -53 -60 -125 -51 -180 8
-57 9 -123 1 -179 -3 -28 1 -63 14 -105 11 -34 20 -71 20 -83 0 -11 3 -24 7
-28 4 -3 8 -12 9 -19 9 -43 36 -133 49 -157 8 -16 15 -35 15 -43 0 -8 11 -31
25 -51 14 -21 29 -56 35 -79 5 -23 41 -104 79 -179 45 -89 72 -153 75 -185 12
-90 25 -140 57 -209 40 -88 66 -193 78 -316 5 -53 17 -110 25 -127 9 -17 18
-43 20 -58 6 -44 8 -50 69 -177 88 -185 89 -185 141 -233 49 -43 93 -67 145
-79 24 -5 38 -7 111 -19 14 -3 68 -7 120 -10 52 -3 119 -10 148 -15 28 -5 59
-7 67 -4 12 5 15 -3 15 -40 0 -46 -1 -47 -47 -67 -26 -11 -50 -23 -53 -27 -3
-4 -26 -18 -52 -31 -27 -13 -48 -28 -48 -32 0 -5 -7 -9 -15 -9 -8 0 -15 -3
-15 -7 0 -5 -30 -28 -68 -53 -95 -64 -222 -193 -255 -260 -31 -64 -83 -268
-99 -384 -5 -45 -10 -157 -11 -251 0 -146 3 -178 21 -230 37 -107 87 -218 109
-243 12 -13 29 -45 39 -70 45 -130 63 -156 123 -183 25 -11 58 -41 91 -83 28
-36 61 -68 73 -72 12 -4 63 -45 112 -93 71 -68 108 -95 175 -127 151 -73 227
-103 280 -111 14 -2 36 -6 50 -9 14 -3 34 -6 45 -8 11 -2 20 -4 20 -5 0 -2 7
-4 15 -6 8 -2 24 -6 35 -9 11 -3 46 -14 77 -25 70 -25 167 -27 269 -6 73 16
169 54 169 67 0 5 6 8 13 8 32 0 173 175 263 325 31 52 58 95 61 95 2 0 2 -4
-1 -9 -8 -12 139 -65 153 -56 6 3 -9 -33 -33 -81 -51 -101 -55 -77 43 -297 33
-76 61 -141 61 -144 0 -6 95 -227 118 -272 9 -19 21 -33 25 -32 5 1 17 -8 28
-20 l19 -22 40 86 c27 58 38 96 35 116 -2 17 0 29 5 26 5 -3 6 -13 3 -23 -4
-12 -3 -14 5 -7 6 6 45 82 85 170 41 88 98 208 126 268 l51 107 77 0 78 0 57
-118 c31 -64 111 -233 179 -374 67 -142 126 -258 131 -258 5 0 11 8 15 17 3
10 30 74 60 143 30 69 58 134 62 145 69 165 132 310 151 352 26 57 25 75 -9
143 -17 32 -24 57 -18 57 7 0 43 10 81 23 l69 23 18 -24 c10 -13 19 -29 19
-36 0 -6 3 -13 8 -15 4 -1 33 -42 64 -89 82 -126 166 -211 241 -247 136 -66
298 -80 412 -37 36 13 65 22 65 18 0 -3 6 -1 13 5 7 6 31 14 53 17 21 3 48 8
59 10 11 2 34 6 50 9 41 7 96 27 185 69 41 19 90 40 108 47 17 7 32 16 32 21
0 5 6 9 14 9 8 0 51 35 96 78 104 99 103 98 128 106 12 4 42 36 67 70 28 40
58 69 82 80 53 25 89 72 128 167 19 45 42 90 51 100 16 18 71 135 100 213 28
77 35 211 21 406 -4 58 -8 112 -8 120 -3 57 -74 311 -101 363 -42 78 -160 195
-281 278 -50 34 -98 69 -105 76 -7 7 -24 16 -38 19 -13 3 -24 11 -24 17 0 6
-3 8 -6 4 -3 -3 -14 2 -24 11 -14 13 -17 27 -13 64 6 54 13 59 98 64 107 7
240 23 304 38 48 11 132 60 164 95 44 49 164 290 186 376 11 39 26 88 35 110
8 22 15 56 16 76 1 92 39 255 79 339 29 62 43 107 51 168 11 83 41 158 124
312 20 36 33 72 30 82 -2 9 0 19 6 23 5 3 10 13 10 22 0 9 9 26 19 37 22 24
69 149 81 216 5 25 20 79 35 120 22 65 26 90 24 180 -1 58 1 128 6 156 6 41 3
60 -16 105 -13 30 -26 56 -29 59 -4 3 -12 15 -19 28 -6 12 -16 22 -22 22 -6 0
-23 9 -39 20 -15 11 -30 17 -34 13 -3 -3 -6 -1 -6 6 0 7 -6 11 -14 8 -8 -3
-16 -1 -19 6 -3 9 -43 12 -143 11 -157 -1 -181 -4 -279 -37 -39 -13 -73 -25
-77 -26 -4 -1 -28 -10 -54 -21 -25 -11 -58 -23 -72 -27 -27 -6 -350 -164 -447
-217 -120 -66 -249 -147 -253 -158 -2 -4 -10 -8 -18 -8 -8 0 -14 -4 -14 -10 0
-5 -7 -10 -15 -10 -8 0 -15 -4 -15 -10 0 -5 -5 -10 -10 -10 -12 0 -14 -2 -75
-55 -22 -19 -43 -35 -47 -35 -5 0 -16 -8 -27 -17 -21 -20 -78 -70 -107 -93
-10 -9 -52 -47 -93 -85 -41 -39 -72 -62 -68 -53 14 38 -285 248 -508 358 -812
399 -1794 271 -2467 -322 l-68 -59 -67 63 c-86 81 -226 197 -323 268 -41 30
-76 58 -78 62 -2 5 -10 8 -18 8 -8 0 -14 5 -14 10 0 6 -7 10 -15 10 -8 0 -15
3 -15 8 0 4 -8 12 -19 17 -27 15 -161 93 -196 115 -53 34 -419 211 -447 217
-16 3 -28 10 -28 15 0 5 -4 7 -9 3 -5 -3 -12 -1 -16 5 -3 5 -12 10 -19 10 -8
0 -31 8 -52 17 -22 9 -43 17 -49 19 -5 1 -41 12 -80 24 -85 27 -313 37 -380
16z m-1 -48 c20 -9 23 -14 15 -25 -23 -27 -72 -2 -53 28 7 11 8 11 38 -3z
m6714 -10 c-3 -25 -25 -33 -48 -18 -13 9 -12 12 4 25 29 22 48 19 44 -7z
m-6472 -14 c56 -27 54 -73 -4 -95 -24 -9 -60 3 -74 25 -14 21 -8 65 10 75 23
14 29 14 68 -5z m174 -3 c3 -3 18 -14 35 -23 16 -9 31 -21 33 -26 5 -16 -51
-19 -75 -4 -13 8 -23 11 -23 8 0 -3 -13 6 -30 21 -16 14 -30 29 -30 32 0 8 83
1 90 -8z m5940 9 c0 -10 -54 -55 -71 -59 -43 -10 -89 -12 -89 -4 0 15 72 61
101 65 38 5 59 4 59 -2z m135 0 c4 -6 11 -8 16 -5 5 4 9 3 10 -2 0 -4 2 -20 4
-35 3 -20 -3 -33 -22 -48 -32 -25 -44 -25 -77 1 -31 24 -32 39 -8 66 26 30 65
42 77 23z m-6517 -82 c2 -8 -4 -21 -13 -28 -12 -10 -20 -9 -41 4 -20 14 -23
20 -13 32 15 18 63 13 67 -8z m6796 5 c5 -11 1 -22 -10 -30 -22 -16 -24 -16
-48 2 -16 12 -17 17 -6 30 17 20 56 19 64 -2z m-6644 -117 c-1 -46 -60 -82
-96 -58 -18 12 -23 50 -8 71 27 38 104 28 104 -13z m6528 13 c21 -19 20 -57
-2 -71 -20 -14 -56 -8 -76 12 -27 27 -26 64 2 77 28 12 50 7 76 -18z m-6230
-36 c-15 -2 -42 -2 -60 0 -18 2 -6 4 27 4 33 0 48 -2 33 -4z m5900 0 c-15 -2
-42 -2 -60 0 -18 2 -6 4 27 4 33 0 48 -2 33 -4z m502 -23 c0 -12 -24 -30 -42
-30 -12 0 -18 8 -18 23 0 13 3 26 6 30 7 7 54 -13 54 -23z m-6912 -9 c3 -21 1
-23 -20 -18 -12 4 -26 7 -30 7 -5 0 -8 8 -8 19 0 30 54 23 58 -8z m599 23 c-3
-3 -12 -4 -19 -1 -8 3 -5 6 6 6 11 1 17 -2 13 -5z m5680 0 c-3 -3 -12 -4 -19
-1 -8 3 -5 6 6 6 11 1 17 -2 13 -5z m-5947 -8 c0 -2 -7 -7 -16 -10 -8 -3 -12
-2 -9 4 6 10 25 14 25 6z m305 -14 c-3 -3 -11 0 -18 7 -9 10 -8 11 6 5 10 -3
15 -9 12 -12z m5940 -12 c3 -6 -1 -7 -9 -4 -18 7 -21 14 -7 14 6 0 13 -4 16
-10z m-5864 -27 c13 -16 12 -17 -3 -4 -10 7 -18 15 -18 17 0 8 8 3 21 -13z
m5439 2 c-7 -9 -15 -13 -19 -10 -3 3 1 10 9 15 21 14 24 12 10 -5z m-5805 -16
l70 -6 -66 -1 c-46 -2 -71 3 -85 14 -10 8 -12 12 -4 7 8 -4 47 -11 85 -14z
m614 -16 c33 -25 38 -56 12 -82 -39 -39 -68 -38 -112 5 -41 40 -46 53 -28 86
9 17 18 20 56 15 25 -3 57 -14 72 -24z m5059 -12 c3 -27 -3 -40 -29 -67 -38
-39 -65 -43 -103 -13 -61 48 -1 122 94 116 32 -2 35 -5 38 -36z m-5390 22
c-10 -2 -28 -2 -40 0 -13 2 -5 4 17 4 22 1 32 -1 23 -4z m69 1 c-3 -3 -12 -4
-19 -1 -8 3 -5 6 6 6 11 1 17 -2 13 -5z m5571 -1 c-10 -2 -28 -2 -40 0 -13 2
-5 4 17 4 22 1 32 -1 23 -4z m245 0 c-13 -2 -35 -2 -50 0 -16 2 -5 4 22 4 28
0 40 -2 28 -4z m-6517 -34 c3 -6 0 -17 -7 -25 -18 -17 -44 -2 -36 20 7 18 33
21 43 5z m179 1 c-8 -13 -35 -13 -55 0 -11 7 -5 10 23 10 23 0 36 -4 32 -10z
m6548 -2 c-17 -8 -29 -8 -45 0 -20 9 -18 11 22 11 40 0 42 -2 23 -11z m172 2
c4 -6 1 -17 -5 -26 -14 -16 -40 -2 -40 22 0 16 36 19 45 4z m-5589 -40 c37
-19 62 -46 51 -57 -10 -9 -107 56 -107 72 0 9 13 5 56 -15z m4294 14 c0 -10
-29 -31 -73 -55 -35 -18 -38 -19 -35 -3 4 23 108 78 108 58z m-4381 -38 c8 -6
15 -9 15 -6 1 3 15 -5 30 -18 22 -17 27 -25 18 -34 -25 -25 -155 42 -138 70 8
13 52 6 75 -12z m4485 -7 c-8 -13 -100 -59 -118 -59 -52 0 -10 55 58 75 41 13
73 4 60 -16z m-5548 -24 c17 -26 12 -44 -22 -68 -28 -21 -53 -16 -72 13 -40
64 53 118 94 55z m6614 25 c4 0 13 -14 20 -30 12 -28 10 -33 -10 -55 -13 -14
-29 -25 -35 -25 -21 0 -65 41 -65 60 0 23 49 63 68 55 7 -3 17 -5 22 -5z
m-6333 -16 c-3 -3 -12 -4 -19 -1 -8 3 -5 6 6 6 11 1 17 -2 13 -5z m228 -3 c3
-5 0 -13 -6 -17 -8 -5 -9 -3 -4 6 6 10 4 12 -9 7 -10 -4 -15 -3 -11 3 8 13 22
13 30 1z m5523 -6 c-30 -17 -42 -45 -33 -77 5 -18 4 -20 -4 -8 -6 8 -11 23
-11 33 0 21 43 67 62 67 7 -1 1 -7 -14 -15z m-5788 1 c0 -2 -7 -7 -16 -10 -8
-3 -12 -2 -9 4 6 10 25 14 25 6z m6075 -6 c3 -6 -1 -7 -9 -4 -18 7 -21 14 -7
14 6 0 13 -4 16 -10z m-5781 -16 c3 -8 2 -12 -4 -9 -6 3 -10 10 -10 16 0 14 7
11 14 -7z m257 -23 c39 -40 41 -102 4 -127 -31 -20 -81 -13 -120 18 -24 19
-27 26 -22 65 6 57 21 73 69 73 30 0 46 -7 69 -29z m5077 -18 c19 -59 2 -93
-56 -113 -38 -13 -46 -13 -70 0 -22 13 -28 24 -30 58 -3 36 1 47 27 73 26 26
37 30 73 27 41 -3 44 -5 56 -45z m-6035 -18 c-15 -11 -21 -11 -35 2 -10 9 -18
22 -18 29 0 20 33 21 53 1 18 -18 18 -19 0 -32z m6917 30 c0 -6 -9 -20 -20
-30 -19 -17 -22 -17 -36 -3 -14 14 -14 17 1 36 18 21 55 19 55 -3z m-6610 -24
c-8 -16 -6 -21 11 -26 27 -9 20 -16 -9 -8 -24 6 -28 23 -10 41 17 17 20 15 8
-7z m403 -6 c-3 -9 -8 -14 -10 -11 -3 3 -2 9 2 15 9 16 15 13 8 -4z m5867 -12
c0 -1 -8 -7 -18 -12 -13 -7 -19 -6 -19 2 0 7 9 13 19 13 10 0 18 -1 18 -3z
m-6152 -30 c-10 -2 -28 -2 -40 0 -13 2 -5 4 17 4 22 1 32 -1 23 -4z m219 1
c-3 -3 -12 -4 -19 -1 -8 3 -5 6 6 6 11 1 17 -2 13 -5z m5831 -1 c-10 -2 -26
-2 -35 0 -10 3 -2 5 17 5 19 0 27 -2 18 -5z m372 -65 c0 -13 -23 -5 -28 10 -2
7 2 10 12 6 9 -3 16 -11 16 -16z m-6808 0 c-9 -9 -15 -9 -24 0 -9 9 -7 12 12
12 19 0 21 -3 12 -12z m1538 -23 c17 -9 30 -20 30 -25 0 -5 8 -11 18 -15 22
-6 82 -87 81 -107 0 -10 -2 -10 -6 0 -2 6 -11 12 -19 12 -8 0 -14 5 -14 10 0
6 -4 10 -10 10 -13 0 -43 25 -91 75 -54 56 -50 71 11 40z m3740 -14 c-36 -51
-160 -147 -160 -124 0 21 64 94 107 122 61 41 82 41 53 2z m-4666 8 c-4 -7 0
-9 14 -5 28 9 107 -31 94 -47 -15 -20 -25 -70 -11 -62 7 5 7 0 -2 -16 -15 -29
-39 -54 -39 -41 0 5 7 15 15 22 8 7 15 17 15 23 0 6 -12 -1 -27 -16 -37 -34
-93 -57 -142 -57 -66 0 -84 37 -60 122 11 42 45 66 99 70 17 1 34 6 36 10 3 4
7 8 10 8 3 0 2 -5 -2 -11z m759 -10 c67 -34 108 -69 124 -106 28 -69 -8 -95
-109 -79 -47 8 -96 49 -119 101 -24 51 -23 61 1 85 26 26 50 25 103 -1z m4141
5 c57 -56 -36 -187 -139 -195 -59 -4 -75 1 -87 26 -22 49 30 116 128 165 48
24 78 25 98 4z m704 0 c57 -12 81 -27 93 -56 14 -33 17 -114 5 -125 -10 -11
-104 -10 -140 1 -21 6 -27 6 -22 -2 5 -8 1 -10 -9 -5 -12 4 -13 8 -5 13 9 6 9
9 0 15 -7 4 -17 1 -22 -6 -8 -11 -9 -10 -4 4 3 10 -3 30 -14 45 -21 28 -36 97
-19 87 5 -4 9 -2 9 3 0 13 71 42 88 36 8 -2 26 -7 40 -10z m-6033 -34 c8 -26
-11 -50 -39 -50 -28 0 -46 18 -46 47 0 46 71 48 85 3z m1507 2 c25 -23 38 -44
34 -51 -10 -16 -62 22 -81 60 -21 41 -3 37 47 -9z m3447 6 c-13 -24 -59 -68
-71 -68 -20 0 -4 31 33 65 44 39 58 41 38 3z m1549 -7 c7 -42 -46 -69 -76 -39
-17 17 -15 35 8 58 24 24 63 14 68 -19z m-180 -16 c-3 -3 -9 2 -12 12 -6 14
-5 15 5 6 7 -7 10 -15 7 -18z m-6465 -46 c6 -9 7 -24 3 -34 -6 -17 -7 -17 -26
0 -25 22 -27 58 -4 53 9 -2 21 -10 27 -19z m6747 10 c0 -6 -8 -22 -19 -35 -16
-21 -20 -22 -31 -9 -10 13 -9 19 5 35 20 22 45 27 45 9z m-290 -3 c0 -2 -8
-10 -17 -17 -16 -13 -17 -12 -4 4 13 16 21 21 21 13z m-6165 -46 c10 -11 16
-20 13 -20 -3 0 -13 9 -23 20 -10 11 -16 20 -13 20 3 0 13 -9 23 -20z m5763
-15 c-3 -3 -9 2 -12 12 -6 14 -5 15 5 6 7 -7 10 -15 7 -18z m-4856 -15 c55
-16 98 -60 98 -103 0 -54 -19 -63 -77 -34 -26 14 -67 31 -91 38 -43 12 -86 52
-79 73 4 12 62 35 92 35 11 1 37 -4 57 -9z m4438 -10 c11 -6 20 -14 20 -19 0
-21 -43 -60 -73 -66 -17 -4 -58 -21 -90 -37 -67 -34 -87 -27 -87 28 0 85 140
142 230 94z m-5270 -16 c0 -2 -9 0 -20 6 -11 6 -20 13 -20 16 0 2 9 0 20 -6
11 -6 20 -13 20 -16z m250 12 c0 -2 -7 -7 -16 -10 -8 -3 -12 -2 -9 4 6 10 25
14 25 6z m5730 -10 c-7 -7 -13 -7 -20 0 -6 6 -3 10 10 10 13 0 16 -4 10 -10z
m-3622 -21 c-3 -3 -9 2 -12 12 -6 14 -5 15 5 6 7 -7 10 -15 7 -18z m-2497 0
c-1 -15 -24 -12 -29 3 -3 9 2 13 12 10 10 -1 17 -7 17 -13z m6279 6 c0 -10
-30 -24 -37 -17 -3 3 -2 9 2 15 8 13 35 15 35 2z m-6421 -20 c8 -15 7 -20 -7
-23 -26 -7 -42 2 -42 23 0 25 36 25 49 0z m6578 -1 c1 -11 -1 -21 -5 -21 -30
-6 -52 -5 -52 2 0 39 54 57 57 19z m-2962 -18 c122 -28 128 -30 110 -48 -7 -8
-18 -14 -23 -14 -6 0 -20 -15 -31 -33 -11 -18 -33 -45 -48 -59 -57 -52 -127
-163 -223 -351 -57 -110 -62 -117 -82 -106 -20 11 -97 8 -129 -5 -12 -5 -21 5
-38 46 -33 81 -139 266 -190 334 -86 113 -146 183 -158 183 -6 1 -15 6 -19 13
-5 8 -2 9 10 5 9 -4 54 3 99 15 154 40 232 47 437 43 148 -2 217 -8 285 -23z
m-3327 -75 c22 -17 14 -64 -14 -86 -49 -38 -97 -22 -108 37 -8 47 21 75 72 66
20 -4 43 -11 50 -17z m3610 -13 c137 -56 309 -158 396 -234 l34 -30 34 27 c18
15 -27 -35 -100 -111 -138 -144 -339 -370 -506 -570 -54 -64 -101 -116 -105
-116 -4 0 -14 19 -21 43 -7 23 -27 80 -45 127 -18 47 -36 96 -40 110 -18 59
-61 128 -107 172 l-49 47 52 102 c75 145 156 268 239 358 14 15 41 46 60 69
19 23 43 42 53 42 10 0 57 -16 105 -36z m2443 26 c30 -17 26 -85 -6 -106 -45
-29 -105 2 -105 55 0 39 12 48 83 60 5 0 17 -4 28 -9z m-3451 -164 c19 -26 40
-52 45 -59 37 -43 86 -124 150 -250 l46 -88 -49 -47 c-30 -30 -54 -65 -65 -97
-42 -118 -137 -350 -144 -352 -4 -1 -28 23 -53 55 -119 149 -388 456 -533 608
l-68 71 68 55 c121 98 237 169 373 229 l85 38 55 -59 c30 -32 71 -79 90 -104z
m1740 161 c0 -2 -17 -19 -37 -38 l-38 -34 34 38 c33 34 41 42 41 34z m-3807
-14 c-7 -2 -19 -2 -25 0 -7 3 -2 5 12 5 14 0 19 -2 13 -5z m4910 0 c-7 -2 -19
-2 -25 0 -7 3 -2 5 12 5 14 0 19 -2 13 -5z m-5133 -7 c0 -2 -8 -10 -17 -17
-16 -13 -17 -12 -4 4 13 16 21 21 21 13z m1350 -21 c13 -14 21 -25 18 -25 -2
0 -15 11 -28 25 -13 14 -21 25 -18 25 2 0 15 -11 28 -25z m-830 -51 c0 -2 -9
0 -20 6 -11 6 -20 13 -20 16 0 2 9 0 20 -6 11 -6 20 -13 20 -16z m4885 -13
c-4 -3 -10 1 -14 8 -5 7 -14 11 -20 7 -7 -5 -9 -1 -5 9 6 14 8 14 25 -1 11
-10 17 -20 14 -23z m-5956 14 c43 -22 54 -59 21 -68 -11 -3 -20 -1 -20 4 0 5
-6 9 -13 9 -8 0 -19 11 -25 25 -22 48 -12 56 37 30z m511 3 c0 -6 -3 -8 -7 -5
-3 4 -13 1 -22 -6 -14 -11 -14 -10 -2 6 15 20 31 22 31 5z m5967 -4 c7 -21
-45 -73 -67 -67 -11 3 -20 9 -20 14 0 17 23 58 31 54 4 -3 11 -1 14 5 8 14 37
9 42 -6z m-4979 -1 c-21 -2 -55 -2 -75 0 -21 2 -4 4 37 4 41 0 58 -2 38 -4z
m79 1 c-3 -3 -12 -4 -19 -1 -8 3 -5 6 6 6 11 1 17 -2 13 -5z m3300 0 c-3 -3
-12 -4 -19 -1 -8 3 -5 6 6 6 11 1 17 -2 13 -5z m131 -1 c-21 -2 -55 -2 -75 0
-21 2 -4 4 37 4 41 0 58 -2 38 -4z m-3710 -10 c-10 -2 -26 -2 -35 0 -10 3 -2
5 17 5 19 0 27 -2 18 -5z m350 -20 c15 -16 19 -21 7 -12 -11 9 -29 21 -40 27
-11 6 -14 12 -8 12 7 0 25 -12 41 -27z m3536 19 c2 -4 -11 -6 -30 -4 -19 2
-34 6 -34 8 0 8 59 4 64 -4z m-4063 -19 c13 -16 12 -17 -3 -4 -10 7 -18 15
-18 17 0 8 8 3 21 -13z m113 1 c3 -8 2 -12 -4 -9 -6 3 -10 10 -10 16 0 14 7
11 14 -7z m4096 12 c0 -2 -8 -10 -17 -17 -16 -13 -17 -12 -4 4 13 16 21 21 21
13z m-4169 -43 c13 -16 12 -17 -3 -4 -17 13 -22 21 -14 21 2 0 10 -8 17 -17z
m4129 13 c0 -2 -8 -10 -17 -17 -16 -13 -17 -12 -4 4 13 16 21 21 21 13z
m-3320 -16 c0 -5 -5 -10 -11 -10 -5 0 -7 5 -4 10 3 6 8 10 11 10 2 0 4 -4 4
-10z m-670 -75 c0 -11 -14 7 -31 40 -7 13 -3 12 10 -5 11 -14 21 -29 21 -35z
m3851 22 c-10 -9 -11 -8 -5 6 3 10 9 15 12 12 3 -3 0 -11 -7 -18z m-3396 -16
c3 -5 2 -12 -3 -15 -5 -3 -9 1 -9 9 0 17 3 19 12 6z m-1384 -40 c34 -28 16
-56 -37 -56 -33 0 -40 4 -48 28 -8 22 -7 30 4 37 24 15 56 11 81 -9z m5766 7
c5 -7 7 -24 3 -38 -5 -21 -12 -25 -44 -25 -50 0 -69 24 -42 54 21 23 68 28 83
9z m-5991 -32 c12 -51 -46 -94 -61 -45 -11 35 2 64 29 67 20 1 27 -4 32 -22z
m6192 12 c25 -25 8 -78 -25 -78 -19 0 -36 39 -29 66 7 26 34 32 54 12z m-5735
-18 c4 0 5 5 1 12 -5 7 -3 8 5 3 9 -5 10 -10 2 -18 -8 -8 -15 -6 -26 6 -8 9
-10 12 -3 7 7 -6 16 -10 21 -10z m5224 6 c0 -8 -6 -12 -15 -9 -11 5 -11 7 0
14 7 5 13 9 14 9 0 0 1 -6 1 -14z m-5162 -26 c13 -5 14 -9 5 -9 -8 0 -24 4
-35 9 -13 5 -14 9 -5 9 8 0 24 -4 35 -9z m5142 4 c-3 -3 -12 -4 -19 -1 -8 3
-5 6 6 6 11 1 17 -2 13 -5z m-5054 -21 c-7 -2 -19 -2 -25 0 -7 3 -2 5 12 5 14
0 19 -2 13 -5z m611 -9 c3 -8 2 -12 -4 -9 -6 3 -10 10 -10 16 0 14 7 11 14 -7z
m3166 13 c0 -2 -10 -12 -22 -23 l-23 -19 19 23 c18 21 26 27 26 19z m1173 -4
c-7 -2 -19 -2 -25 0 -7 3 -2 5 12 5 14 0 19 -2 13 -5z m-4766 -17 c3 -3 -27
-3 -68 0 -41 3 -76 8 -79 11 -3 3 28 2 68 0 41 -3 76 -8 79 -11z m4223 4 c0
-5 -5 -10 -11 -10 -5 0 -7 5 -4 10 3 6 8 10 11 10 2 0 4 -4 4 -10z m390 -6 c0
-2 -17 -4 -37 -3 -29 0 -33 2 -18 8 18 7 55 4 55 -5z m68 9 c-10 -2 -26 -2
-35 0 -10 3 -2 5 17 5 19 0 27 -2 18 -5z m-241 -29 c-3 -3 -12 -4 -19 -1 -8 3
-5 6 6 6 11 1 17 -2 13 -5z m-3950 -31 c-4 -3 -1 -13 6 -22 11 -14 10 -14 -5
-2 -16 12 -16 31 -1 31 4 0 3 -3 0 -7z m3017 -11 c3 -5 -1 -9 -9 -9 -8 0 -12
4 -9 9 3 4 7 8 9 8 2 0 6 -4 9 -8z m-3827 -8 c-3 -3 -12 -4 -19 -1 -8 3 -5 6
6 6 11 1 17 -2 13 -5z m91 -1 c-16 -2 -40 -2 -55 0 -16 2 -3 4 27 4 30 0 43
-2 28 -4z m5089 0 c-20 -2 -52 -2 -70 0 -17 2 0 4 38 4 39 0 53 -2 32 -4z
m-5237 -7 c0 -2 -8 -10 -17 -17 -16 -13 -17 -12 -4 4 13 16 21 21 21 13z m303
-3 c-7 -2 -21 -2 -30 0 -10 3 -4 5 12 5 17 0 24 -2 18 -5z m4735 0 c-10 -2
-26 -2 -35 0 -10 3 -2 5 17 5 19 0 27 -2 18 -5z m282 -3 c8 -5 11 -10 5 -10
-5 0 -17 5 -25 10 -8 5 -10 10 -5 10 6 0 17 -5 25 -10z m-4892 -7 c-10 -2 -28
-2 -40 0 -13 2 -5 4 17 4 22 1 32 -1 23 -4z m4500 0 c-10 -2 -28 -2 -40 0 -13
2 -5 4 17 4 22 1 32 -1 23 -4z m-5167 -13 c23 -13 25 -53 3 -74 -20 -21 -26
-20 -58 5 -24 19 -35 57 -19 72 10 10 52 8 74 -3z m772 3 c-13 -2 -35 -2 -50
0 -16 2 -5 4 22 4 28 0 40 -2 28 -4z m4285 0 c-10 -2 -28 -2 -40 0 -13 2 -5 4
17 4 22 1 32 -1 23 -4z m808 -18 c4 -18 1 -32 -11 -45 -39 -43 -85 -32 -85 21
0 32 21 48 62 49 21 0 29 -6 34 -25z m-4989 9 c-3 -3 -12 -4 -19 -1 -8 3 -5 6
6 6 11 1 17 -2 13 -5z m4056 -1 c-7 -2 -19 -2 -25 0 -7 3 -2 5 12 5 14 0 19
-2 13 -5z m-76 -9 c-3 -3 -12 -4 -19 -1 -8 3 -5 6 6 6 11 1 17 -2 13 -5z
m-5045 -33 c9 -1 38 -55 38 -71 0 -19 -49 -10 -64 12 -22 31 -21 67 2 63 9 -2
20 -4 24 -4z m6204 -18 c-3 -8 -6 -18 -6 -23 0 -16 -31 -40 -51 -40 -24 0 -24
17 0 57 15 24 25 30 41 26 13 -4 19 -11 16 -20z m-2043 -17 c-15 -19 -32 -35
-37 -35 -6 -1 5 15 24 34 43 45 50 45 13 1z m-2879 16 c3 -5 -1 -9 -9 -9 -8 0
-12 4 -9 9 3 4 7 8 9 8 2 0 6 -4 9 -8z m3593 -15 c0 -8 -6 -14 -14 -14 -9 0
-10 4 -2 14 6 7 12 13 14 13 1 0 2 -6 2 -13z m-3359 -67 c17 -27 10 -25 -19 6
-13 14 -17 23 -9 19 9 -3 21 -14 28 -25z m-1241 -15 c0 -8 -4 -12 -9 -9 -5 3
-6 10 -3 15 9 13 12 11 12 -6z m4453 -39 c0 -2 -8 -10 -17 -17 -16 -13 -17
-12 -4 4 13 16 21 21 21 13z m-2540 -60 c0 -6 -7 -3 -14 6 -7 10 -15 16 -18
13 -2 -3 -5 2 -5 10 0 13 3 13 19 -2 10 -9 18 -21 18 -27z m1827 29 c0 -8 -4
-12 -8 -9 -4 2 -12 -4 -18 -13 -6 -10 -11 -14 -11 -9 0 8 29 46 35 46 1 0 2
-7 2 -15z m533 -18 c0 -2 -10 -12 -22 -23 l-23 -19 19 23 c18 21 26 27 26 19z
m-4294 -32 c31 -48 -11 -89 -50 -46 -13 14 -14 24 -7 45 13 33 36 33 57 1z
m1254 21 c0 -2 -7 -7 -16 -10 -8 -3 -12 -2 -9 4 6 10 25 14 25 6z m4456 -23
c8 -32 -6 -57 -34 -61 -28 -4 -38 32 -18 63 21 33 44 32 52 -2z m-5856 -19
c12 -31 -2 -54 -31 -54 -15 0 -19 7 -19 33 0 54 33 67 50 21z m5996 1 c12 -48
-18 -74 -46 -40 -10 12 -10 21 -2 40 15 32 40 32 48 0z m-1473 -19 c-4 -19 1
-26 24 -34 15 -6 22 -11 15 -11 -36 -2 -67 40 -45 62 10 11 11 9 6 -17z
m-2362 -23 l24 -26 -27 19 c-15 10 -28 22 -28 27 0 12 5 8 31 -20z m1649 14
c0 -2 -17 -19 -37 -38 l-38 -34 34 38 c33 34 41 42 41 34z m-3373 -13 c-3 -3
-12 -4 -19 -1 -8 3 -5 6 6 6 11 1 17 -2 13 -5z m66 -11 c-7 -2 -19 -2 -25 0
-7 3 -2 5 12 5 14 0 19 -2 13 -5z m267 -3 c0 -6 -40 -9 -102 -8 l-103 2 100 6
c55 3 101 7 103 8 1 1 2 -2 2 -8z m4585 -4 c17 -1 -16 -4 -72 -4 -57 -1 -103
1 -103 6 0 6 105 6 175 -2z m113 7 c-10 -2 -28 -2 -40 0 -13 2 -5 4 17 4 22 1
32 -1 23 -4z m-4380 -10 c-53 -2 -143 -2 -200 0 -57 1 -13 3 97 3 110 0 156
-2 103 -3z m3975 0 c-62 -2 -164 -2 -225 0 -62 1 -12 3 112 3 124 0 174 -2
113 -3z m-3293 -37 c0 -2 -7 -7 -16 -10 -8 -3 -12 -2 -9 4 6 10 25 14 25 6z
m466 -28 l19 -23 -22 19 c-16 13 -23 15 -23 6 0 -7 -3 -11 -6 -7 -5 5 3 27 10
27 2 0 11 -10 22 -22z m-689 6 c-3 -3 -12 -4 -19 -1 -8 3 -5 6 6 6 11 1 17 -2
13 -5z m43 -14 c8 -5 11 -10 5 -10 -5 0 -17 5 -25 10 -8 5 -10 10 -5 10 6 0
17 -5 25 -10z m3187 4 c-3 -3 -12 -4 -19 -1 -8 3 -5 6 6 6 11 1 17 -2 13 -5z
m-3804 -11 c-7 -2 -19 -2 -25 0 -7 3 -2 5 12 5 14 0 19 -2 13 -5z m70 0 c-7
-2 -19 -2 -25 0 -7 3 -2 5 12 5 14 0 19 -2 13 -5z m3890 0 c-7 -2 -21 -2 -30
0 -10 3 -4 5 12 5 17 0 24 -2 18 -5z m60 0 c-7 -2 -19 -2 -25 0 -7 3 -2 5 12
5 14 0 19 -2 13 -5z m-4156 -10 c-20 -2 -52 -2 -70 0 -17 2 0 4 38 4 39 0 53
-2 32 -4z m813 -19 c0 -2 -9 0 -20 6 -11 6 -20 13 -20 16 0 2 9 0 20 -6 11 -6
20 -13 20 -16z m3517 19 c-20 -2 -52 -2 -70 0 -17 2 0 4 38 4 39 0 53 -2 32
-4z m-4519 -10 c-21 -2 -57 -2 -80 0 -24 2 -7 4 37 4 44 0 63 -2 43 -4z m1797
-24 c4 -6 4 -13 1 -16 -7 -7 -46 26 -46 39 0 10 36 -8 45 -23z m849 -9 c-5 -5
-10 3 -11 18 -1 22 0 24 9 8 6 -10 6 -22 2 -26z m238 8 c-12 -12 -25 -18 -29
-14 -4 4 3 16 16 27 31 25 41 15 13 -13z m1786 25 c-10 -2 -28 -2 -40 0 -13 2
-5 4 17 4 22 1 32 -1 23 -4z m85 0 c-13 -2 -33 -2 -45 0 -13 2 -3 4 22 4 25 0
35 -2 23 -4z m467 -31 c0 -16 -47 -72 -61 -72 -10 0 -21 49 -14 69 13 41 75
43 75 3z m-5724 3 c14 -21 15 -30 5 -52 l-12 -26 -29 28 c-38 36 -41 75 -5 75
15 0 31 -10 41 -25z m301 19 c-3 -3 -12 -4 -19 -1 -8 3 -5 6 6 6 11 1 17 -2
13 -5z m5076 -1 c-7 -2 -19 -2 -25 0 -7 3 -2 5 12 5 14 0 19 -2 13 -5z m-5148
-23 c3 -5 0 -7 -8 -4 -8 3 -18 1 -22 -5 -3 -6 -1 -11 6 -11 7 0 10 -3 6 -6 -3
-3 -11 -3 -17 1 -8 5 -8 11 1 21 13 16 25 18 34 4z m2292 -12 c-3 -8 -6 -5 -6
6 -1 11 2 17 5 13 3 -3 4 -12 1 -19z m2944 5 c13 -17 12 -17 -4 -4 -16 13 -20
13 -28 0 -5 -8 -9 -9 -9 -3 0 27 22 31 41 7z m-5573 -15 c7 -7 12 -17 12 -24
0 -19 -30 -25 -47 -9 -12 12 -13 19 -3 30 15 18 22 19 38 3z m3276 -4 c3 -8 2
-12 -4 -9 -6 3 -10 10 -10 16 0 14 7 11 14 -7z m336 12 c0 -2 -8 -10 -17 -17
-16 -13 -17 -12 -4 4 13 16 21 21 21 13z m2296 -11 c8 -20 -13 -45 -32 -38
-17 6 -19 39 -1 46 21 9 27 7 33 -8z m-3575 -62 c13 -16 12 -17 -3 -4 -10 7
-18 15 -18 17 0 8 8 3 21 -13z m-360 -10 c13 -17 13 -17 -6 -3 -11 8 -22 16
-24 17 -2 2 0 3 6 3 6 0 17 -8 24 -17z m614 7 c3 -5 1 -10 -4 -10 -6 0 -11 5
-11 10 0 6 2 10 4 10 3 0 8 -4 11 -10z m1344 7 c-2 -1 -13 -9 -24 -17 -19 -14
-19 -14 -6 3 7 9 18 17 24 17 6 0 8 -1 6 -3z m-1368 -54 c-12 -20 -14 -14 -5
12 4 9 9 14 11 11 3 -2 0 -13 -6 -23z m3090 -16 c-10 -9 -11 -8 -5 6 3 10 9
15 12 12 3 -3 0 -11 -7 -18z m-1846 -7 c-3 -5 -12 -10 -18 -10 -7 0 -6 4 3 10
19 12 23 12 15 0z m-1640 -59 c-6 -5 -25 10 -25 20 0 5 6 4 14 -3 8 -7 12 -15
11 -17z m1082 -23 c-2 -13 -4 -5 -4 17 -1 22 1 32 4 23 2 -10 2 -28 0 -40z
m487 37 c-10 -8 -23 -15 -28 -15 -6 0 -1 7 10 15 10 8 23 15 28 15 6 0 1 -7
-10 -15z m-3466 -30 c-3 -3 -9 2 -12 12 -6 14 -5 15 5 6 7 -7 10 -15 7 -18z
m5345 10 c-3 -9 -8 -14 -10 -11 -3 3 -2 9 2 15 9 16 15 13 8 -4z m-2203 -50
c0 -8 -4 -15 -10 -15 -5 0 -7 7 -4 15 4 8 8 15 10 15 2 0 4 -7 4 -15z m-3292
-18 c13 -13 13 -19 2 -31 -7 -9 -19 -16 -26 -16 -21 0 -54 38 -48 54 7 18 51
14 72 -7z m5700 -5 c5 -32 -42 -52 -66 -28 -16 16 -16 18 6 36 28 23 56 19 60
-8z m-248 -2 c-6 -11 -13 -20 -16 -20 -2 0 0 9 6 20 6 11 13 20 16 20 2 0 0
-9 -6 -20z m-1925 -40 c-3 -5 -12 -10 -18 -10 -7 0 -6 4 3 10 19 12 23 12 15
0z m-3202 -17 c-7 -2 -21 -2 -30 0 -10 3 -4 5 12 5 17 0 24 -2 18 -5z m3047 3
c0 -2 -7 -7 -16 -10 -8 -3 -12 -2 -9 4 6 10 25 14 25 6z m1963 -3 c-7 -2 -19
-2 -25 0 -7 3 -2 5 12 5 14 0 19 -2 13 -5z m-4966 -9 c-3 -3 -12 -4 -19 -1 -8
3 -5 6 6 6 11 1 17 -2 13 -5z m4784 -12 c-24 -2 -47 0 -52 5 -4 4 15 6 44 3
l52 -5 -44 -3z m136 12 c-3 -3 -12 -4 -19 -1 -8 3 -5 6 6 6 11 1 17 -2 13 -5z
m-4784 -11 c-13 -2 -33 -2 -45 0 -13 2 -3 4 22 4 25 0 35 -2 23 -4z m1840 -18
c-3 -9 -8 -14 -10 -11 -3 3 -2 9 2 15 9 16 15 13 8 -4z m-1751 -60 c-3 -13
-52 -9 -66 5 -8 8 0 10 29 8 22 -2 39 -7 37 -13z m705 9 c-3 -3 -12 -4 -19 -1
-8 3 -5 6 6 6 11 1 17 -2 13 -5z m3060 0 c-3 -3 -12 -4 -19 -1 -8 3 -5 6 6 6
11 1 17 -2 13 -5z m-2949 -11 c-10 -2 -26 -2 -35 0 -10 3 -2 5 17 5 19 0 27
-2 18 -5z m1593 -4 c44 -8 69 -17 69 -25 0 -23 -38 -177 -65 -261 -24 -79
-141 -366 -172 -427 l-15 -28 -13 24 c-32 63 -129 299 -166 405 -49 144 -82
284 -69 297 6 6 10 7 10 4 0 -3 24 1 53 8 66 16 277 17 368 3z m1257 4 c-10
-2 -26 -2 -35 0 -10 3 -2 5 17 5 19 0 27 -2 18 -5z m-2690 -10 c-15 -2 -42 -2
-60 0 -18 2 -6 4 27 4 33 0 48 -2 33 -4z m59 1 c-3 -3 -12 -4 -19 -1 -8 3 -5
6 6 6 11 1 17 -2 13 -5z m2491 -1 c-21 -2 -57 -2 -80 0 -24 2 -7 4 37 4 44 0
63 -2 43 -4z m-2180 -10 c-32 -2 -84 -2 -115 0 -32 2 -6 3 57 3 63 0 89 -1 58
-3z m1870 0 c-32 -2 -84 -2 -115 0 -32 2 -6 3 57 3 63 0 89 -1 58 -3z m-1665
-10 c-13 -2 -33 -2 -45 0 -13 2 -3 4 22 4 25 0 35 -2 23 -4z m1390 0 c-13 -2
-33 -2 -45 0 -13 2 -3 4 22 4 25 0 35 -2 23 -4z m-1798 -53 c13 -6 5 -7 -25
-3 -25 3 -47 7 -49 9 -9 8 55 2 74 -6z m292 4 c-3 -3 -12 -4 -19 -1 -8 3 -5 6
6 6 11 1 17 -2 13 -5z m46 -1 c-7 -2 -19 -2 -25 0 -7 3 -2 5 12 5 14 0 19 -2
13 -5z m1554 1 c-3 -3 -12 -4 -19 -1 -8 3 -5 6 6 6 11 1 17 -2 13 -5z m331 -1
c-10 -2 -26 -2 -35 0 -10 3 -2 5 17 5 19 0 27 -2 18 -5z m-65 -10 c-7 -2 -21
-2 -30 0 -10 3 -4 5 12 5 17 0 24 -2 18 -5z m-2070 -10 c-7 -2 -19 -2 -25 0
-7 3 -2 5 12 5 14 0 19 -2 13 -5z m2014 1 c-3 -3 -12 -4 -19 -1 -8 3 -5 6 6 6
11 1 17 -2 13 -5z m-1970 -10 c-3 -3 -12 -4 -19 -1 -8 3 -5 6 6 6 11 1 17 -2
13 -5z m691 -25 c-3 -8 -7 -3 -11 10 -4 17 -3 21 5 13 5 -5 8 -16 6 -23z
m1229 25 c-3 -3 -12 -4 -19 -1 -8 3 -5 6 6 6 11 1 17 -2 13 -5z m-1870 -10
c-3 -3 -12 -4 -19 -1 -8 3 -5 6 6 6 11 1 17 -2 13 -5z m1810 0 c-3 -3 -12 -4
-19 -1 -8 3 -5 6 6 6 11 1 17 -2 13 -5z m-1764 -11 c-7 -2 -19 -2 -25 0 -7 3
-2 5 12 5 14 0 19 -2 13 -5z m252 -7 c17 -1 -28 -3 -100 -3 -71 0 -117 2 -101
6 27 6 134 4 201 -3z m1315 0 c14 -2 -14 -4 -62 -5 -49 0 -88 2 -88 7 0 6 92
6 150 -2z m110 -2 c0 -2 -18 -3 -40 -2 -23 1 -36 4 -30 8 10 6 70 1 70 -6z
m47 10 c-3 -3 -12 -4 -19 -1 -8 3 -5 6 6 6 11 1 17 -2 13 -5z m-310 -106 c-3
-8 -6 -5 -6 6 -1 11 2 17 5 13 3 -3 4 -12 1 -19z m1300 -4 c-3 -3 -12 -4 -19
-1 -8 3 -5 6 6 6 11 1 17 -2 13 -5z m-2457 -39 c0 -31 -3 -35 -37 -44 -21 -6
-45 -11 -54 -11 -8 0 -105 -18 -215 -39 -303 -59 -373 -67 -431 -48 -127 42
-221 103 -196 128 9 9 90 9 302 2 307 -9 394 -5 531 26 47 11 88 20 93 20 4 1
7 -15 7 -34z m1340 3 c90 -20 113 -21 437 -14 244 5 343 4 348 -4 4 -6 -1 -21
-12 -32 -22 -26 -164 -94 -215 -103 -45 -9 -156 6 -383 50 -93 19 -199 39
-235 45 -100 17 -100 17 -100 56 0 41 -15 41 160 2z m1430 -24 c0 -2 -9 0 -20
6 -11 6 -20 13 -20 16 0 2 9 0 20 -6 11 -6 20 -13 20 -16z m-4330 11 c0 -2
-10 -9 -22 -15 -22 -11 -22 -10 -4 4 21 17 26 19 26 11z m-46 -60 c4 -17 11
-23 19 -19 7 4 8 3 4 -2 -5 -5 -12 -9 -15 -10 -4 0 -20 -6 -35 -12 -40 -17
-87 -15 -87 2 0 16 16 29 39 33 8 1 21 9 30 17 22 23 38 20 45 -9z m2773 -22
c-3 -10 -5 -4 -5 12 0 17 2 24 5 18 2 -7 2 -21 0 -30z m-367 23 c0 -3 -4 -8
-10 -11 -5 -3 -10 -1 -10 4 0 6 5 11 10 11 6 0 10 -2 10 -4z m2110 -41 c0 -8
-13 -13 -34 -13 -25 0 -33 4 -30 14 14 48 12 46 39 28 14 -9 25 -22 25 -29z
m-1643 19 c-3 -3 -12 -4 -19 -1 -8 3 -5 6 6 6 11 1 17 -2 13 -5z m-2534 -11
c-7 -2 -21 -2 -30 0 -10 3 -4 5 12 5 17 0 24 -2 18 -5z m190 0 c-13 -2 -35 -2
-50 0 -16 2 -5 4 22 4 28 0 40 -2 28 -4z m974 1 c-3 -3 -12 -4 -19 -1 -8 3 -5
6 6 6 11 1 17 -2 13 -5z m2426 -1 c-13 -2 -35 -2 -50 0 -16 2 -5 4 22 4 28 0
40 -2 28 -4z m100 0 c-13 -2 -33 -2 -45 0 -13 2 -3 4 22 4 25 0 35 -2 23 -4z
m70 0 c-7 -2 -19 -2 -25 0 -7 3 -2 5 12 5 14 0 19 -2 13 -5z m-3496 -9 c-3 -3
-12 -4 -19 -1 -8 3 -5 6 6 6 11 1 17 -2 13 -5z m3210 0 c-3 -3 -12 -4 -19 -1
-8 3 -5 6 6 6 11 1 17 -2 13 -5z m-2460 -20 c-3 -3 -12 -4 -19 -1 -8 3 -5 6 6
6 11 1 17 -2 13 -5z m1908 -34 c3 -5 1 -10 -4 -10 -6 0 -11 5 -11 10 0 6 2 10
4 10 3 0 8 -4 11 -10z m335 -32 c0 -5 -7 -3 -15 6 -8 8 -15 18 -15 22 0 3 7 1
15 -6 8 -7 15 -17 15 -22z m-2761 19 c-2 -1 -15 -11 -29 -22 l-25 -20 19 23
c11 12 24 22 29 22 6 0 8 -1 6 -3z m231 -7 c-8 -5 -26 -9 -40 -9 -23 1 -23 2
5 9 43 11 52 11 35 0z m2317 -6 c-3 -3 -12 -4 -19 -1 -8 3 -5 6 6 6 11 1 17
-2 13 -5z m-610 -51 c-3 -10 -5 -2 -5 17 0 19 2 27 5 18 2 -10 2 -26 0 -35z
m-3000 13 c-2 -31 -34 -60 -69 -64 -38 -5 -37 21 1 59 37 37 71 39 68 5z
m1172 10 c-2 -2 -17 -6 -34 -9 l-30 -6 30 13 c26 12 47 13 34 2z m2561 -7 c10
-6 5 -7 -15 -3 -16 4 -34 11 -40 16 -11 12 31 1 55 -13z m136 -7 c-4 -3 -14 2
-24 12 -16 18 -16 18 6 6 13 -6 21 -14 18 -18z m1058 -3 c31 -37 33 -55 6 -62
-11 -3 -20 -1 -20 4 0 5 -5 9 -12 9 -20 0 -48 32 -48 57 0 35 42 31 74 -8z
m-229 12 c3 -5 2 -12 -3 -15 -5 -3 -9 1 -9 9 0 17 3 19 12 6z m-2865 -14 c0
-2 -17 -19 -37 -38 l-38 -34 34 38 c33 34 41 42 41 34z m-1007 -54 c-7 -2 -19
-2 -25 0 -7 3 -2 5 12 5 14 0 19 -2 13 -5z m169 -37 c-15 -24 -29 -42 -31 -40
-4 4 47 84 54 84 2 0 -8 -20 -23 -44z m2099 27 c13 -16 12 -17 -3 -4 -10 7
-18 15 -18 17 0 8 8 3 21 -13z m956 11 c-3 -3 -12 -4 -19 -1 -8 3 -5 6 6 6 11
1 17 -2 13 -5z m-3354 -21 c-7 -2 -19 -2 -25 0 -7 3 -2 5 12 5 14 0 19 -2 13
-5z m2336 -6 c8 -10 7 -14 -4 -14 -8 0 -15 6 -15 14 0 7 2 13 4 13 2 0 9 -6
15 -13z m1154 6 c-7 -2 -19 -2 -25 0 -7 3 -2 5 12 5 14 0 19 -2 13 -5z m-1052
-20 c13 -16 12 -17 -3 -4 -10 7 -18 15 -18 17 0 8 8 3 21 -13z m1096 11 c-3
-3 -12 -4 -19 -1 -8 3 -5 6 6 6 11 1 17 -2 13 -5z m-3640 -10 c-3 -3 -12 -4
-19 -1 -8 3 -5 6 6 6 11 1 17 -2 13 -5z m-790 -19 c8 -23 -26 -58 -44 -44 -14
12 -18 41 -6 52 12 13 44 7 50 -8z m740 9 c-3 -3 -12 -4 -19 -1 -8 3 -5 6 6 6
11 1 17 -2 13 -5z m326 -1 c-7 -2 -21 -2 -30 0 -10 3 -4 5 12 5 17 0 24 -2 18
-5z m3150 0 c-7 -2 -19 -2 -25 0 -7 3 -2 5 12 5 14 0 19 -2 13 -5z m320 0 c-7
-2 -19 -2 -25 0 -7 3 -2 5 12 5 14 0 19 -2 13 -5z m772 -14 c9 -27 -7 -43 -34
-34 -20 6 -28 34 -14 48 14 14 42 6 48 -14z m-4608 5 c-3 -3 -12 -4 -19 -1 -8
3 -5 6 6 6 11 1 17 -2 13 -5z m280 0 c-3 -3 -12 -4 -19 -1 -8 3 -5 6 6 6 11 1
17 -2 13 -5z m3600 0 c-3 -3 -12 -4 -19 -1 -8 3 -5 6 6 6 11 1 17 -2 13 -5z
m390 -16 c-3 -8 -6 -5 -6 6 -1 11 2 17 5 13 3 -3 4 -12 1 -19z m-3140 -33 c0
-8 -4 -12 -9 -9 -5 3 -6 10 -3 15 9 13 12 11 12 -6z m1380 -7 c-3 -8 -6 -5 -6
6 -1 11 2 17 5 13 3 -3 4 -12 1 -19z m960 -10 c-3 -8 -6 -5 -6 6 -1 11 2 17 5
13 3 -3 4 -12 1 -19z m-4001 -3 c8 -19 -31 -81 -55 -88 -25 -6 -45 27 -31 53
12 23 49 50 68 50 7 0 15 -7 18 -15z m527 8 c-7 -2 -19 -2 -25 0 -7 3 -2 5 12
5 14 0 19 -2 13 -5z m388 -16 c-10 -9 -11 -8 -5 6 3 10 9 15 12 12 3 -3 0 -11
-7 -18z m839 19 c0 -2 -7 -7 -16 -10 -8 -3 -12 -2 -9 4 6 10 25 14 25 6z
m1435 -6 c3 -6 -1 -7 -9 -4 -18 7 -21 14 -7 14 6 0 13 -4 16 -10z m1222 4 c-3
-3 -12 -4 -19 -1 -8 3 -5 6 6 6 11 1 17 -2 13 -5z m552 -4 c10 -5 25 -20 34
-33 14 -22 14 -27 1 -46 -19 -27 -46 -15 -70 30 -24 48 -7 72 35 49z m-3249
-14 c0 -2 -8 -10 -17 -17 -16 -13 -17 -12 -4 4 13 16 21 21 21 13z m1511 -13
c13 -16 12 -17 -3 -4 -10 7 -18 15 -18 17 0 8 8 3 21 -13z m-1601 3 c0 -2 -8
-10 -17 -17 -16 -13 -17 -12 -4 4 13 16 21 21 21 13z m1691 -13 c13 -16 12
-17 -3 -4 -10 7 -18 15 -18 17 0 8 8 3 21 -13z m-2416 -3 c-3 -5 -12 -10 -18
-10 -7 0 -6 4 3 10 19 12 23 12 15 0z m3672 4 c-3 -3 -12 -4 -19 -1 -8 3 -5 6
6 6 11 1 17 -2 13 -5z m-596 -31 c13 -16 12 -17 -3 -4 -10 7 -18 15 -18 17 0
8 8 3 21 -13z m-580 -30 c13 -16 12 -17 -3 -4 -10 7 -18 15 -18 17 0 8 8 3 21
-13z m-3621 -27 c18 -23 8 -57 -23 -80 -28 -21 -29 -21 -43 -2 -19 27 -18 52
6 76 24 24 43 25 60 6z m280 10 c0 -2 -12 -11 -27 -20 l-28 -17 24 20 c23 21
31 25 31 17z m4825 -6 c3 -6 -1 -7 -9 -4 -18 7 -21 14 -7 14 6 0 13 -4 16 -10z
m319 -11 c29 -23 32 -45 11 -73 -15 -20 -15 -20 -43 1 -30 22 -40 57 -22 79
16 19 22 18 54 -7z m-3228 -189 c7 -54 -12 -108 -121 -336 -67 -140 -95 -185
-95 -152 0 7 -35 34 -78 59 -85 51 -98 51 -129 -1 -9 -17 -21 -30 -25 -30 -4
0 30 62 76 138 147 243 278 456 299 487 l21 29 24 -74 c12 -41 25 -95 28 -120z
m2189 172 c-3 -3 -11 0 -18 7 -9 10 -8 11 6 5 10 -3 15 -9 12 -12z m-1115 -49
c19 -32 58 -94 86 -138 28 -44 90 -145 139 -225 48 -80 95 -155 103 -168 14
-22 14 -23 -9 -12 -21 10 -35 5 -107 -36 -77 -43 -96 -64 -72 -79 6 -3 10 -16
10 -29 0 -13 8 -38 17 -57 10 -19 18 -43 20 -54 3 -23 -45 77 -49 103 -2 9 -9
23 -16 30 -7 8 -10 17 -7 22 3 5 1 10 -4 12 -11 4 -158 316 -190 401 -11 32
-21 67 -21 77 0 27 52 210 60 210 3 0 21 -26 40 -57z m1050 20 c0 -7 -39 17
-46 28 -3 6 5 3 20 -6 14 -10 26 -19 26 -22z m-3350 23 c0 -2 -7 -7 -16 -10
-8 -3 -12 -2 -9 4 6 10 25 14 25 6z m110 -6 c0 -5 -5 -10 -11 -10 -5 0 -7 5
-4 10 3 6 8 10 11 10 2 0 4 -4 4 -10z m3345 0 c3 -6 -1 -7 -9 -4 -18 7 -21 14
-7 14 6 0 13 -4 16 -10z m-668 -17 c-4 -3 -2 -12 5 -20 8 -11 7 -12 -6 -7 -9
3 -16 9 -16 13 0 9 11 21 18 21 3 0 2 -3 -1 -7z m-2127 -7 c0 -2 -8 -10 -17
-17 -16 -13 -17 -12 -4 4 13 16 21 21 21 13z m-636 -49 c-22 -24 -41 -42 -43
-40 -5 3 70 83 77 83 3 0 -13 -19 -34 -43z m1203 1 c-3 -8 -6 -5 -6 6 -1 11 2
17 5 13 3 -3 4 -12 1 -19z m1497 4 c2 -4 -5 -9 -17 -9 -17 -2 -19 0 -7 7 18
12 18 12 24 2z m-2802 -9 c-6 -2 -10 -9 -7 -14 4 -5 -1 -6 -10 -2 -13 5 -14 7
-3 14 7 5 18 8 23 8 6 0 4 -3 -3 -6z m21 -28 c-10 -13 -20 -21 -22 -19 -2 2 3
12 12 22 10 10 14 22 10 27 -5 4 -2 5 5 1 9 -6 8 -13 -5 -31z m637 20 c0 -1
-15 -12 -32 -25 -27 -19 -30 -20 -15 -3 9 11 15 22 12 24 -2 3 5 5 15 5 11 0
20 -1 20 -1z m141 -12 c13 -16 12 -17 -3 -4 -17 13 -22 21 -14 21 2 0 10 -8
17 -17z m1679 -13 c12 -16 19 -30 16 -30 -2 0 -14 14 -26 30 -12 17 -19 30
-16 30 2 0 14 -13 26 -30z m1111 -12 c15 -28 5 -21 -21 15 -15 20 -17 27 -6
18 9 -8 22 -23 27 -33z m-605 1 c3 -6 -5 -3 -20 6 -14 10 -26 19 -26 22 0 7
39 -17 46 -28z m-3231 3 c-3 -3 -11 0 -18 7 -9 10 -8 11 6 5 10 -3 15 -9 12
-12z m4100 8 c-3 -5 -12 -10 -18 -10 -7 0 -6 4 3 10 19 12 23 12 15 0z m464
-30 c0 -10 -3 -8 -9 5 -12 27 -12 43 0 25 5 -8 9 -22 9 -30z m-1438 3 c12 -16
12 -17 -2 -6 -9 7 -20 9 -24 5 -5 -4 -5 -1 -1 6 9 16 11 15 27 -5z m-3756 -23
c0 -27 -22 -39 -31 -16 -8 22 3 49 19 43 6 -2 12 -14 12 -27z m5373 5 c4 -20
-15 -36 -35 -28 -16 6 -17 25 -1 41 16 16 32 10 36 -13z m-5231 -17 c-3 -8 -6
-5 -6 6 -1 11 2 17 5 13 3 -3 4 -12 1 -19z m2394 -11 c-10 -9 -11 -8 -5 6 3
10 9 15 12 12 3 -3 0 -11 -7 -18z m-1156 3 c-3 -5 -12 -10 -18 -10 -7 0 -6 4
3 10 19 12 23 12 15 0z m2450 -28 c-3 -3 -11 0 -18 7 -9 10 -8 11 6 5 10 -3
15 -9 12 -12z m-3698 -44 c-2 -13 -4 -5 -4 17 -1 22 1 32 4 23 2 -10 2 -28 0
-40z m1203 37 c0 -2 -10 -9 -22 -15 -22 -11 -22 -10 -4 4 21 17 26 19 26 11z
m2685 -5 c3 -6 -1 -7 -9 -4 -18 7 -21 14 -7 14 6 0 13 -4 16 -10z m-2114 -23
c-10 -9 -11 -8 -5 6 3 10 9 15 12 12 3 -3 0 -11 -7 -18z m1538 -11 c-3 -3 -11
5 -18 17 -13 21 -12 21 5 5 10 -10 16 -20 13 -22z m-3185 15 c3 -5 -1 -11 -9
-14 -9 -4 -12 -1 -8 9 6 16 10 17 17 5z m526 -22 c-6 -10 -13 -19 -16 -19 -2
0 0 8 5 19 6 10 7 22 3 26 -4 5 -1 5 6 1 9 -5 9 -12 2 -27z m683 7 c-10 -13
-20 -22 -22 -20 -4 4 29 44 36 44 2 0 -4 -11 -14 -24z m786 -85 c49 -124 54
-96 -46 -264 -70 -117 -67 -115 -135 -81 -15 8 -34 14 -42 14 -10 0 7 47 59
164 41 91 81 190 91 220 10 31 21 56 24 56 4 0 26 -49 49 -109z m1622 92 c13
-16 12 -17 -3 -4 -10 7 -18 15 -18 17 0 8 8 3 21 -13z m1336 -15 c-3 -7 -5 -2
-5 12 0 14 2 19 5 13 2 -7 2 -19 0 -25z m-2058 -19 c11 -36 70 -174 155 -362
15 -32 22 -56 17 -53 -5 4 -33 -3 -62 -14 -28 -12 -54 -18 -58 -15 -10 10 -66
102 -115 190 l-45 81 41 107 c23 59 45 107 48 107 4 0 12 -18 19 -41z m-899
11 c6 -11 8 -20 6 -20 -3 0 -10 9 -16 20 -6 11 -8 20 -6 20 3 0 10 -9 16 -20z
m2324 -6 c5 -14 4 -15 -9 -4 -17 14 -19 20 -6 20 5 0 12 -7 15 -16z m-4685
-13 c15 -27 -9 -56 -37 -47 -21 7 -31 44 -15 59 13 13 42 7 52 -12z m5609 -7
c2 -11 -4 -26 -12 -33 -31 -26 -71 14 -45 45 17 21 53 14 57 -12z m-3228 -39
c0 -5 -5 -3 -10 5 -5 8 -10 20 -10 25 0 6 5 3 10 -5 5 -8 10 -19 10 -25z
m1211 18 c13 -16 12 -17 -3 -4 -10 7 -18 15 -18 17 0 8 8 3 21 -13z m549 2 c0
-2 -6 -5 -13 -8 -8 -3 -14 1 -14 8 0 7 6 11 14 8 7 -3 13 -6 13 -8z m-2720 1
c0 -2 -7 -7 -16 -10 -8 -3 -12 -2 -9 4 6 10 25 14 25 6z m31 -23 c-12 -20 -14
-14 -5 12 4 9 9 14 11 11 3 -2 0 -13 -6 -23z m3815 -14 c3 -6 -5 -3 -20 6 -14
10 -26 19 -26 22 0 7 39 -17 46 -28z m-3896 11 c-8 -5 -19 -10 -25 -10 -5 0
-3 5 5 10 8 5 20 10 25 10 6 0 3 -5 -5 -10z m-265 -30 c-27 -12 -43 -12 -25 0
8 5 22 9 30 9 10 0 8 -3 -5 -9z m3505 -10 c0 -5 -5 -10 -11 -10 -5 0 -7 5 -4
10 3 6 8 10 11 10 2 0 4 -4 4 -10z m-83 -6 c-3 -3 -12 -4 -19 -1 -8 3 -5 6 6
6 11 1 17 -2 13 -5z m804 -11 c13 -16 12 -17 -3 -4 -10 7 -18 15 -18 17 0 8 8
3 21 -13z m-3430 -16 c-10 -9 -11 -8 -5 6 3 10 9 15 12 12 3 -3 0 -11 -7 -18z
m1252 8 c-3 -9 -8 -14 -10 -11 -3 3 -2 9 2 15 9 16 15 13 8 -4z m937 -35 c6
-11 8 -20 6 -20 -3 0 -10 9 -16 20 -6 11 -8 20 -6 20 3 0 10 -9 16 -20z
m-2985 0 c-3 -5 -14 -10 -23 -9 -14 0 -13 2 3 9 27 11 27 11 20 0z m286 -13
c-10 -9 -11 -8 -5 6 3 10 9 15 12 12 3 -3 0 -11 -7 -18z m2773 7 c3 -8 2 -12
-4 -9 -6 3 -10 10 -10 16 0 14 7 11 14 -7z m-4165 -3 c19 -12 4 -53 -17 -49
-21 4 -30 58 -10 58 7 0 19 -4 27 -9z m174 -6 c-3 -9 -8 -14 -10 -11 -3 3 -2
9 2 15 9 16 15 13 8 -4z m577 0 c-14 -8 -29 -14 -35 -14 -5 0 1 6 15 14 14 8
30 14 35 14 6 0 -1 -6 -15 -14z m1770 11 c0 -2 -8 -10 -17 -17 -16 -13 -17
-12 -4 4 13 16 21 21 21 13z m613 -11 c-3 -9 -8 -14 -10 -11 -3 3 -2 9 2 15 9
16 15 13 8 -4z m2455 -13 c4 -28 -24 -40 -45 -19 -14 13 -14 19 -3 32 18 22
44 15 48 -13z m-4974 9 c3 -5 -11 -19 -31 -31 -23 -13 -32 -16 -24 -6 7 8 21
18 32 21 11 4 17 11 14 16 -4 5 -4 9 -1 9 3 0 7 -4 10 -9z m334 -16 c-3 -3 -9
2 -12 12 -6 14 -5 15 5 6 7 -7 10 -15 7 -18z m505 10 c-3 -9 -8 -14 -10 -11
-3 3 -2 9 2 15 9 16 15 13 8 -4z m2237 -5 c6 -11 8 -20 6 -20 -3 0 -10 9 -16
20 -6 11 -8 20 -6 20 3 0 10 -9 16 -20z m929 -25 c0 -5 -4 -3 -9 5 -5 8 -9 22
-9 30 0 16 17 -16 18 -35z m328 38 c-4 -3 1 -12 11 -20 15 -13 15 -13 -6 -3
-19 9 -23 30 -5 30 4 0 3 -3 0 -7z m453 -28 c0 -5 -5 -3 -10 5 -5 8 -10 20
-10 25 0 6 5 3 10 -5 5 -8 10 -19 10 -25z m-3537 10 c-3 -9 -8 -14 -10 -11 -3
3 -2 9 2 15 9 16 15 13 8 -4z m2677 -10 c11 -13 10 -14 -4 -9 -9 3 -16 10 -16
15 0 13 6 11 20 -6z m-3180 1 c0 -3 -4 -8 -10 -11 -5 -3 -10 -1 -10 4 0 6 5
11 10 11 6 0 10 -2 10 -4z m1085 -63 c16 -37 15 -39 -22 -120 -40 -87 -46 -91
-102 -72 -28 10 -44 39 -21 39 6 0 10 7 10 15 0 8 5 15 10 15 6 0 10 5 10 10
0 10 90 150 96 150 2 0 11 -17 19 -37z m759 -86 c37 -60 66 -110 64 -111 -2
-1 -21 -7 -43 -14 -46 -13 -40 -20 -92 96 -31 70 -35 87 -25 103 7 10 12 26
12 36 0 23 6 15 84 -110z m-2699 93 c-3 -5 -16 -15 -28 -21 -19 -9 -19 -8 3
10 28 23 34 26 25 11z m2009 -9 c3 -5 -1 -11 -9 -14 -9 -4 -12 -1 -8 9 6 16
10 17 17 5z m-2064 -37 c0 -8 -19 -13 -24 -6 -3 5 1 9 9 9 8 0 15 -2 15 -3z
m4571 -11 c13 -16 12 -17 -3 -4 -17 13 -22 21 -14 21 2 0 10 -8 17 -17z
m-4616 -13 c3 -6 -1 -7 -9 -4 -18 7 -21 14 -7 14 6 0 13 -4 16 -10z m1366 -13
c-10 -9 -11 -8 -5 6 3 10 9 15 12 12 3 -3 0 -11 -7 -18z m1945 -2 c3 -14 9
-25 13 -25 3 0 12 -9 18 -20 9 -14 10 -21 1 -26 -7 -4 -8 -3 -4 4 4 6 -2 17
-14 24 -11 7 -20 20 -20 28 0 9 -5 21 -12 28 -9 9 -9 12 0 12 6 0 14 -11 18
-25z m1439 15 c-3 -5 -12 -10 -18 -10 -7 0 -6 4 3 10 19 12 23 12 15 0z
m-2046 -64 c-3 -3 -11 5 -18 17 -13 21 -12 21 5 5 10 -10 16 -20 13 -22z
m-2884 4 c3 -6 -1 -7 -9 -4 -18 7 -21 14 -7 14 6 0 13 -4 16 -10z m5015 -16
c0 -2 -9 0 -20 6 -11 6 -20 13 -20 16 0 2 9 0 20 -6 11 -6 20 -13 20 -16z m95
16 c-3 -5 -12 -10 -18 -10 -7 0 -6 4 3 10 19 12 23 12 15 0z m-3262 -25 c-3
-8 -9 -15 -15 -15 -5 0 -6 -4 -3 -10 3 -5 1 -10 -5 -10 -6 0 -8 -5 -4 -12 4
-7 3 -8 -5 -4 -6 4 -9 11 -6 15 2 5 9 20 15 35 5 15 14 25 20 21 5 -3 7 -12 3
-20z m3057 0 c13 -14 21 -25 18 -25 -2 0 -15 11 -28 25 -13 14 -21 25 -18 25
2 0 15 -11 28 -25z m-4847 -2 c-7 -2 -19 -2 -25 0 -7 3 -2 5 12 5 14 0 19 -2
13 -5z m624 -25 c-3 -7 -5 -2 -5 12 0 14 2 19 5 13 2 -7 2 -19 0 -25z m-897
-5 c21 -27 22 -44 2 -51 -18 -6 -63 44 -56 62 9 24 30 19 54 -11z m5580 3 c0
-14 -10 -30 -25 -40 -45 -29 -63 6 -23 44 29 27 48 25 48 -4z m-3877 -1 c-3
-9 -8 -14 -10 -11 -3 3 -2 9 2 15 9 16 15 13 8 -4z m-847 -23 c-17 -16 -18
-16 -5 5 7 12 15 20 18 17 3 -2 -3 -12 -13 -22z m914 18 c0 -5 -5 -10 -11 -10
-5 0 -7 5 -4 10 3 6 8 10 11 10 2 0 4 -4 4 -10z m2974 -6 c3 -8 2 -12 -4 -9
-6 3 -10 10 -10 16 0 14 7 11 14 -7z m-943 -45 c11 -23 16 -38 10 -35 -8 6
-41 63 -41 73 0 13 13 -3 31 -38z m-2060 8 c-10 -9 -11 -8 -5 6 3 10 9 15 12
12 3 -3 0 -11 -7 -18z m2642 -27 c3 -11 2 -18 -3 -15 -4 3 -10 14 -13 25 -3
11 -2 18 3 15 4 -3 10 -14 13 -25z m-4026 -12 c-3 -7 -5 -2 -5 12 0 14 2 19 5
13 2 -7 2 -19 0 -25z m3858 12 c10 -11 16 -20 13 -20 -3 0 -13 9 -23 20 -10
11 -16 20 -13 20 3 0 13 -9 23 -20z m573 -25 c-3 -3 -9 2 -12 12 -6 14 -5 15
5 6 7 -7 10 -15 7 -18z m383 2 c-10 -9 -11 -8 -5 6 3 10 9 15 12 12 3 -3 0
-11 -7 -18z m-2178 -12 c-3 -9 -8 -14 -10 -11 -3 3 -2 9 2 15 9 16 15 13 8 -4z
m-1733 2 c0 -2 -9 -12 -20 -22 -24 -21 -27 -14 -4 9 15 15 24 20 24 13z m1120
-1 c0 -2 -8 -10 -17 -17 -16 -13 -17 -12 -4 4 13 16 21 21 21 13z m1916 -18
l19 -23 -25 20 c-14 11 -27 21 -29 22 -2 2 0 3 6 3 5 0 18 -10 29 -22z m-2315
-25 c-8 -15 -10 -15 -11 -2 0 17 10 32 18 25 2 -3 -1 -13 -7 -23z m-291 3 c0
-2 -7 -9 -15 -16 -13 -11 -14 -10 -9 4 5 14 24 23 24 12z m2185 -36 c9 -16 13
-30 11 -30 -3 0 -12 14 -21 30 -9 17 -13 30 -11 30 3 0 12 -13 21 -30z m1256
7 c-10 -9 -11 -8 -5 6 3 10 9 15 12 12 3 -3 0 -11 -7 -18z m-3928 -2 c-3 -9
-8 -14 -10 -11 -3 3 -2 9 2 15 9 16 15 13 8 -4z m-1081 -18 c7 -14 6 -23 -5
-34 -13 -13 -17 -13 -36 6 -12 12 -21 28 -21 36 0 22 49 15 62 -8z m5348 8 c0
-22 -37 -55 -55 -49 -18 7 -20 35 -3 52 17 17 58 15 58 -3z m-4363 -31 c-6
-20 -13 -32 -14 -27 -4 11 14 63 21 63 2 0 -1 -16 -7 -36z m3332 -24 c0 -8 -6
0 -14 19 -8 18 -15 36 -15 40 1 13 29 -45 29 -59z m341 35 c14 -19 14 -19 -2
-6 -10 7 -18 18 -18 24 0 6 1 8 3 6 1 -2 9 -13 17 -24z m-4097 0 c-3 -9 -8
-14 -10 -11 -3 3 -2 9 2 15 9 16 15 13 8 -4z m1627 -13 c0 -5 -7 -17 -15 -28
-14 -18 -14 -17 -4 9 12 27 19 34 19 19z m1660 -12 c6 -11 8 -20 6 -20 -3 0
-10 9 -16 20 -6 11 -8 20 -6 20 3 0 10 -9 16 -20z m-3519 -7 c13 -16 12 -17
-3 -4 -10 7 -18 15 -18 17 0 8 8 3 21 -13z m2799 -18 c0 -5 -5 -3 -10 5 -5 8
-10 20 -10 25 0 6 5 3 10 -5 5 -8 10 -19 10 -25z m1840 20 c-7 -8 -18 -15 -24
-15 -6 0 -2 7 8 15 25 19 32 19 16 0z m-3469 -18 c-10 -9 -11 -8 -5 6 3 10 9
15 12 12 3 -3 0 -11 -7 -18z m3183 7 c3 -8 2 -12 -4 -9 -6 3 -10 10 -10 16 0
14 7 11 14 -7z m-3643 -21 c-12 -20 -14 -14 -5 12 4 9 9 14 11 11 3 -2 0 -13
-6 -23z m2464 -32 c-2 -2 2 -16 10 -32 15 -27 20 -47 10 -38 -2 3 -16 32 -30
64 -21 49 -22 56 -6 35 11 -14 18 -26 16 -29z m299 33 c3 -8 2 -12 -4 -9 -6 3
-10 10 -10 16 0 14 7 11 14 -7z m-2393 -17 c-10 -9 -11 -8 -5 6 3 10 9 15 12
12 3 -3 0 -11 -7 -18z m73 -9 c-3 -13 -16 -36 -26 -51 -11 -16 -18 -30 -15
-33 2 -3 55 -34 117 -69 94 -53 116 -62 133 -54 10 6 17 7 15 2 -3 -4 -17 -33
-32 -63 -41 -86 -79 -126 -143 -150 -106 -39 -174 -26 -206 43 -25 52 -9 98
106 304 29 51 53 93 55 93 2 0 0 -10 -4 -22z m2344 -20 c10 -12 10 -18 1 -24
-7 -4 -9 -3 -5 4 3 6 2 13 -4 17 -5 3 -10 11 -10 17 0 6 1 9 3 7 1 -2 8 -11
15 -21z m-3257 -15 c-12 -20 -14 -14 -5 12 4 9 9 14 11 11 3 -2 0 -13 -6 -23z
m3347 -28 c-3 -3 -9 2 -12 12 -6 14 -5 15 5 6 7 -7 10 -15 7 -18z m-73 5 c-3
-5 -2 -10 4 -10 6 0 7 -7 4 -17 -4 -11 -3 -14 5 -9 7 4 12 5 12 2 0 -17 -22
-13 -29 6 -8 22 -6 38 5 38 3 0 2 -4 -1 -10z m-471 -16 c3 -8 2 -12 -4 -9 -6
3 -10 10 -10 16 0 14 7 11 14 -7z m-2023 -37 c-10 -9 -11 -8 -5 6 3 10 9 15
12 12 3 -3 0 -11 -7 -18z m2203 -17 l7 -25 -15 25 c-17 28 -21 50 -7 35 5 -6
12 -21 15 -35z m416 -25 c0 -5 -9 5 -20 23 -26 42 -26 56 0 17 11 -16 20 -34
20 -40z m-3369 38 c13 -16 12 -17 -3 -4 -17 13 -22 21 -14 21 2 0 10 -8 17
-17z m-457 -18 c32 -30 33 -45 4 -45 -24 0 -68 39 -68 59 0 19 36 12 64 -14z
m1591 -12 c-18 -43 -23 -49 -31 -40 -6 6 33 77 42 77 2 0 -3 -17 -11 -37z
m2193 -64 c52 -113 52 -157 2 -201 -24 -23 -40 -28 -80 -28 -63 0 -147 36
-183 80 -44 52 -96 160 -77 160 6 0 10 -6 10 -14 0 -32 36 -25 129 25 53 28
105 58 116 65 11 8 24 13 30 11 5 -2 29 -46 53 -98z m762 87 c-7 -7 -13 -7
-20 0 -6 6 -3 10 10 10 13 0 16 -4 10 -10z m514 5 c9 -13 -41 -61 -64 -61 -27
0 -25 16 6 45 28 26 49 32 58 16z m-897 -23 c-3 -8 -6 -5 -6 6 -1 11 2 17 5
13 3 -3 4 -12 1 -19z m-1076 -30 c11 -21 11 -22 -4 -9 -10 7 -17 17 -17 22 0
15 9 10 21 -13z m1419 18 c0 -2 -8 -10 -17 -17 -16 -13 -17 -12 -4 4 13 16 21
21 21 13z m-1070 -27 c0 -6 -4 -7 -10 -4 -5 3 -10 11 -10 16 0 6 5 7 10 4 6
-3 10 -11 10 -16z m881 -11 c39 -1 40 -2 10 -5 -45 -6 -77 3 -85 24 -6 16 -6
16 12 0 11 -10 37 -18 63 -19z m-3571 7 c-8 -10 -28 -14 -59 -13 l-46 1 45 4
c25 3 49 8 55 14 15 15 19 10 5 -6z m409 -16 c-5 -10 -15 -21 -22 -25 -8 -6
-8 -3 1 9 8 9 11 20 8 25 -3 5 1 9 9 9 10 0 11 -5 4 -18z m732 -56 c-12 -20
-14 -14 -5 12 4 9 9 14 11 11 3 -2 0 -13 -6 -23z m-1691 0 c26 -22 26 -43 -1
-43 -32 0 -59 19 -59 40 0 25 32 27 60 3z m4670 10 c0 -1 -4 -13 -10 -27 -7
-20 -17 -26 -39 -26 -16 0 -32 4 -36 9 -9 15 36 51 62 49 12 -1 23 -3 23 -5z
m-3262 -42 c-32 -53 -40 -60 -27 -21 6 19 12 40 14 46 2 6 10 11 19 11 13 0
12 -6 -6 -36z m1817 -9 c9 -35 2 -36 -18 -3 -13 22 -14 28 -2 28 7 0 16 -11
20 -25z m-942 3 c-3 -9 -8 -14 -10 -11 -3 3 -2 9 2 15 9 16 15 13 8 -4z
m-1383 -8 c0 -2 -10 -12 -22 -23 l-23 -19 19 23 c18 21 26 27 26 19z m2835
-17 c10 -11 16 -20 13 -20 -3 0 -13 9 -23 20 -10 11 -16 20 -13 20 3 0 13 -9
23 -20z m-1472 -15 c-3 -8 -10 -15 -15 -15 -7 0 -6 5 1 13 6 8 7 18 3 22 -4 5
-2 5 5 1 7 -4 10 -13 6 -21z m-1513 5 c13 -8 13 -10 -2 -10 -9 0 -20 5 -23 10
-8 13 5 13 25 0z m-115 -40 c0 -19 -6 -26 -24 -28 -30 -5 -45 10 -36 38 10 32
60 24 60 -10z m3399 14 c8 -21 -11 -44 -36 -44 -21 0 -33 22 -24 45 7 20 52
19 60 -1z m-3864 -69 c36 -19 39 -42 6 -51 -31 -7 -66 11 -66 35 0 34 16 39
60 16z m4328 -12 c5 -37 -59 -56 -89 -26 -7 7 -2 17 17 32 34 27 68 24 72 -6z
m-3725 -35 c28 -38 17 -62 -25 -53 -44 9 -82 47 -74 72 9 29 72 17 99 -19z
m3164 15 c7 -21 -41 -63 -77 -65 -44 -4 -50 18 -16 59 22 26 30 30 58 24 17
-4 33 -12 35 -18z m-1512 -14 c9 -17 15 -33 13 -35 -3 -2 -12 12 -21 31 -21
43 -13 47 8 4z m-1423 -16 c25 -22 23 -38 -7 -51 -55 -25 -123 -5 -109 32 13
35 85 47 116 19z m222 -18 c-4 -18 -18 -32 -40 -41 -39 -16 -130 -19 -139 -4
-6 10 21 44 37 46 4 1 9 2 11 4 6 4 45 12 79 14 21 1 41 5 45 9 11 12 14 0 7
-28z m347 8 c-12 -20 -14 -14 -5 12 4 9 9 14 11 11 3 -2 0 -13 -6 -23z m1884
12 c51 -7 117 -42 112 -60 -5 -15 -86 -18 -129 -5 -25 7 -43 21 -53 40 -19 37
-19 42 3 37 9 -3 40 -8 67 -12z m255 -1 c4 -5 10 -18 12 -29 5 -31 -61 -44
-108 -21 l-37 17 23 24 c17 18 31 23 62 21 21 -2 43 -7 48 -12z m-3340 -31
c16 -20 18 -28 8 -35 -20 -12 -34 -10 -59 11 -20 16 -21 21 -10 35 19 23 36
20 61 -11z m3929 13 c10 -12 8 -19 -8 -35 -12 -12 -30 -21 -41 -21 -31 0 -36
27 -9 50 29 23 43 25 58 6z m-2709 -51 c0 -5 -5 -3 -10 5 -5 8 -10 20 -10 25
0 6 5 3 10 -5 5 -8 10 -19 10 -25z m578 10 c-6 -14 -13 -23 -15 -21 -5 5 15
46 22 46 3 0 -1 -11 -7 -25z m853 -2 c-12 -20 -14 -14 -5 12 4 9 9 14 11 11 3
-2 0 -13 -6 -23z m-2453 5 c15 -15 16 -45 1 -53 -14 -9 -79 23 -79 40 0 24 57
34 78 13z m3542 2 c13 -9 10 -14 -14 -34 -32 -27 -59 -28 -64 -2 -8 37 42 60
78 36z m-2502 -55 c-3 -3 -9 2 -12 12 -6 14 -5 15 5 6 7 -7 10 -15 7 -18z
m-946 -22 c25 -23 23 -43 -6 -43 -39 0 -72 42 -43 53 21 9 30 7 49 -10z m3338
7 c12 -7 12 -12 -4 -29 -22 -24 -66 -28 -66 -7 0 8 10 22 22 30 26 18 28 19
48 6z m-1492 -45 c-3 -3 -9 2 -12 12 -6 14 -5 15 5 6 7 -7 10 -15 7 -18z
m-1442 3 c9 -14 -23 -38 -52 -38 -30 0 -38 15 -18 34 18 19 60 21 70 4z m2538
6 c9 -3 16 -15 16 -26 0 -18 -4 -20 -32 -14 -36 7 -60 24 -52 37 6 10 45 12
68 3z m-2700 -10 c24 -9 19 -22 -16 -40 -48 -25 -97 -29 -104 -9 -8 20 -4 24
43 40 44 16 55 17 77 9z m2904 -20 c55 -36 -8 -58 -74 -26 -45 22 -54 36 -31
46 18 8 79 -4 105 -20z m-1274 -30 c3 -8 2 -12 -4 -9 -6 3 -10 10 -10 16 0 14
7 11 14 -7z m-834 -98 c0 -12 -5 -7 -19 24 -11 24 -11 24 3 6 9 -11 16 -24 16
-30z m353 19 c-3 -9 -8 -14 -10 -11 -3 3 -2 9 2 15 9 16 15 13 8 -4z m870 0
c-3 -9 -8 -14 -10 -11 -3 3 -2 9 2 15 9 16 15 13 8 -4z m-20 -40 c-3 -9 -8
-14 -10 -11 -3 3 -2 9 2 15 9 16 15 13 8 -4z m-1152 -98 c-10 -9 -11 -8 -5 6
3 10 9 15 12 12 3 -3 0 -11 -7 -18z m887 -12 c-3 -3 -9 2 -12 12 -6 14 -5 15
5 6 7 -7 10 -15 7 -18z m30 -60 c-3 -3 -9 2 -12 12 -6 14 -5 15 5 6 7 -7 10
-15 7 -18z m-842 -100 l3 -30 -14 25 c-18 31 -19 43 -4 38 7 -2 13 -17 15 -33z
m957 -10 c-3 -9 -8 -14 -10 -11 -3 3 -2 9 2 15 9 16 15 13 8 -4z m-28 -44 c3
-5 0 -13 -6 -17 -7 -4 -9 -3 -5 4 3 5 0 13 -6 15 -9 4 -10 6 -1 6 6 1 14 -3
18 -8z"/>
</g>
</svg>
